HIERARCHY
ROOT Hips
{
	OFFSET	0.000000	0.000000	0.000000
	CHANNELS 6 Xposition Yposition Zposition Zrotation Xrotation Yrotation
	JOINT LeftHip
	{
		OFFSET	4.740440	-3.195970	-0.322709
		CHANNELS 3 Zrotation Xrotation Yrotation
		JOINT LeftKnee
		{
			OFFSET	-1.605680	-15.592300	1.005510
			CHANNELS 3 Zrotation Xrotation Yrotation
			JOINT LeftAnkle
			{
				OFFSET	-0.632401	-16.421000	-1.413730
				CHANNELS 3 Zrotation Xrotation Yrotation
				End Site
				{
					OFFSET	0.008423	-2.933000	-1.684880
				}
			}
		}
	}
	JOINT RightHip
	{
		OFFSET	-4.740440	-3.195970	-0.322709
		CHANNELS 3 Zrotation Xrotation Yrotation
		JOINT RightKnee
		{
			OFFSET	1.605680	-15.592300	1.005510
			CHANNELS 3 Zrotation Xrotation Yrotation
			JOINT RightAnkle
			{
				OFFSET	0.632401	-16.421000	-1.413730
				CHANNELS 3 Zrotation Xrotation Yrotation
				End Site
				{
					OFFSET	-0.008423	-2.933000	-1.684880
				}
			}
		}
	}
	JOINT Chest
	{
		OFFSET	0.000000	3.468200	0.078401
		CHANNELS 3 Zrotation Xrotation Yrotation
		JOINT LeftCollar
		{
			OFFSET	3.857650	15.070700	-0.011583
			CHANNELS 3 Zrotation Xrotation Yrotation
			JOINT LeftShoulder
			{
				OFFSET	3.979720	-1.940530	-0.165223
				CHANNELS 3 Zrotation Xrotation Yrotation
				JOINT LeftElbow
				{
					OFFSET	0.615844	-10.986600	-0.673886
					CHANNELS 3 Zrotation Xrotation Yrotation
					JOINT LeftWrist
					{
						OFFSET	0.826843	-10.854500	1.034220
						CHANNELS 3 Zrotation Xrotation Yrotation
						End Site
						{
							OFFSET	-1.679080	-8.456540	0.936217
						}
					}
				}
			}
		}
		JOINT RightCollar
		{
			OFFSET	-3.857650	15.070700	-0.011583
			CHANNELS 3 Zrotation Xrotation Yrotation
			JOINT RightShoulder
			{
				OFFSET	-3.979720	-1.940530	-0.165223
				CHANNELS 3 Zrotation Xrotation Yrotation
				JOINT RightElbow
				{
					OFFSET	-0.615845	-10.986600	-0.673886
					CHANNELS 3 Zrotation Xrotation Yrotation
					JOINT RightWrist
					{
						OFFSET	-0.826843	-10.854500	1.034220
						CHANNELS 3 Zrotation Xrotation Yrotation
						End Site
						{
							OFFSET	1.679080	-8.456540	0.936217
						}
					}
				}
			}
		}
		JOINT Neck
		{
			OFFSET	0.000000	15.101400	0.055730
			CHANNELS 3 Zrotation Xrotation Yrotation
			JOINT Head
			{
				OFFSET	0.000000	4.185120	1.488260
				CHANNELS 3 Zrotation Xrotation Yrotation
				End Site
				{
					OFFSET	0.000000	7.773420	-0.106016
				}
			}
		}
	}
}
MOTION
Frames:     8
Frame Time: 0.016667
-3.623598	37.881611	2.594321	178.859253	171.367020	-13.927800	-2.519356	4.447300	-11.615346	-1.943665	1.987501	19.522953	0.960316	-0.048788	17.327103	-10.392841	-3.394236	0.508525	-1.151349	13.295523	85.323174	-1.086099	-9.780928	-67.273773	-5.063697	12.982900	6.731807	2.234091	3.090255	-0.451234	2.783441	-1.477047	-9.856704	-3.057104	-12.447078	2.858535	16.460419	-2.773304	-22.873384	1.659451	1.658817	4.056837	-5.867297	-3.706854	1.681668	-1.356497	-9.543220	11.356350	-14.319988	-2.563926	6.881253	0.896234	13.430304	11.695045	-1.292917	7.994162	0.444916	
-3.623087	37.879173	2.588212	178.821945	171.368576	-13.844415	-2.555671	4.430657	-11.735109	-1.940319	1.997012	19.565222	0.960316	-0.048788	17.327103	-10.440741	-3.395489	0.456272	-1.168235	13.362039	85.305397	-1.144875	-9.815950	-67.276917	-5.112509	12.943551	6.679775	2.236729	3.133121	-0.428346	2.818622	-1.477912	-9.815320	-3.082815	-12.452792	2.925494	16.487436	-2.787114	-22.889147	1.632199	1.672338	4.091318	-5.821046	-3.743047	1.803054	-1.387442	-9.495194	11.376360	-14.263967	-2.504437	6.936633	0.758426	13.435537	11.635991	-1.277666	8.039729	0.395565	
-3.622236	37.878029	2.584949	178.803101	171.369415	-13.802165	-2.572443	4.424460	-11.786318	-1.939378	1.999646	19.576950	0.960316	-0.048788	17.327103	-10.468898	-3.398712	0.443050	-1.164436	13.388408	85.280968	-1.164843	-9.827844	-67.277985	-5.128698	12.932287	6.658768	2.231725	3.141499	-0.411745	2.833418	-1.476153	-9.813792	-3.093107	-12.454279	2.929044	16.489292	-2.804903	-22.878216	1.622044	1.675016	4.090191	-5.804608	-3.746325	1.837168	-1.399659	-9.486990	11.390079	-14.226788	-2.481227	7.042152	0.701460	13.447501	11.619493	-1.262975	8.061153	0.362516	
-3.617614	37.874840	2.574298	178.745300	171.372360	-13.671663	-2.618408	4.412789	-11.912600	-1.939063	2.000422	19.580496	0.960316	-0.048788	17.327103	-10.521939	-3.399679	0.356729	-1.198552	13.462491	85.254417	-1.228765	-9.865924	-67.281456	-5.179772	12.892264	6.638273	2.200853	3.208487	-0.427872	2.900043	-1.503073	-9.771696	-3.138737	-12.495785	2.963094	16.505669	-2.846808	-22.856615	1.607805	1.702979	4.053024	-5.775282	-3.787633	1.976688	-1.446196	-9.375961	11.378636	-14.193092	-2.489692	6.976078	0.569935	13.454775	11.524529	-1.213348	8.132099	0.291040	
-3.617884	37.874619	2.573161	178.742615	171.372543	-13.665842	-2.620533	4.412218	-11.918065	-1.940802	2.002504	19.592260	0.961244	-0.051530	17.315439	-10.522586	-3.407028	0.390180	-1.201599	13.490794	85.217834	-1.248006	-9.877382	-67.282501	-5.190724	12.878412	6.671870	2.192558	3.236063	-0.444466	2.922493	-1.514545	-9.748975	-3.163198	-12.541481	2.959633	16.521481	-2.829801	-22.838690	1.610034	1.726944	4.054456	-5.738195	-3.814812	2.073576	-1.506298	-9.300630	11.253402	-14.154845	-2.502576	7.005525	0.489848	13.435803	11.547842	-1.141598	8.167012	0.222708	
-3.615118	37.872849	2.566463	178.710556	171.373749	-13.595519	-2.644160	4.409174	-11.973211	-1.943647	2.002378	19.594646	0.962304	-0.054676	17.302044	-10.571487	-3.413142	0.372962	-1.202532	13.554350	85.192207	-1.302015	-9.907861	-67.302414	-5.183517	12.889856	6.732643	2.122148	3.227320	-0.450917	2.977968	-1.509244	-9.744325	-3.249494	-12.718589	2.966636	16.518232	-2.879273	-22.844105	1.541302	1.721087	4.018716	-5.612863	-3.848873	2.078029	-1.622432	-9.124213	11.163284	-14.141697	-2.509894	6.941272	0.401078	13.431664	11.467848	-1.156999	8.214571	0.092644	
-3.613871	37.871586	2.564213	178.691071	171.374832	-13.551311	-2.658870	4.401052	-11.996917	-1.945606	2.008574	19.584366	0.962897	-0.056428	17.294582	-10.586036	-3.418078	0.367723	-1.210096	13.581693	85.158386	-1.320822	-9.919057	-67.303490	-5.172649	12.905252	6.740251	2.089231	3.200193	-0.444471	2.992635	-1.495314	-9.759103	-3.280172	-12.782419	2.950988	16.512054	-2.904257	-22.815737	1.510708	1.723886	4.019395	-5.602252	-3.866741	2.065634	-1.648435	-9.009556	11.124868	-14.160362	-2.496151	6.892756	0.305202	13.424530	11.463365	-1.102522	8.210980	0.033260	
-3.601141	37.869835	2.554354	178.641739	171.376099	-13.447042	-2.671448	4.422951	-11.910868	-1.962828	1.984313	19.421848	0.964803	-0.062105	17.270346	-10.616790	-3.430259	0.361396	-1.211852	13.604051	85.066505	-1.323436	-9.920628	-67.303566	-5.184709	12.912443	6.672297	2.028360	3.164620	-0.297533	3.041935	-1.457951	-9.790448	-3.395628	-13.038204	2.921487	16.504101	-2.954817	-22.747673	1.451860	1.725332	4.080123	-5.433865	-3.918344	2.100509	-1.761088	-8.775444	11.029084	-14.220413	-2.499789	6.805277	0.224854	13.422263	11.471613	-1.085882	8.211501	0.003083	
